<?xml version="1.0" standalone="no"?>
<!DOCTYPE svg PUBLIC "-//W3C//DTD SVG 20010904//EN"
 "http://www.w3.org/TR/2001/REC-SVG-20010904/DTD/svg10.dtd">
<svg version="1.0" xmlns="http://www.w3.org/2000/svg"
 width="512.000000pt" height="512.000000pt" viewBox="0 0 512.000000 512.000000"
 preserveAspectRatio="xMidYMid meet">
<metadata>
Created by potrace 1.11, written by Peter Selinger 2001-2013
</metadata>
<g transform="translate(0.000000,512.000000) scale(0.100000,-0.100000)"
fill="#000000" stroke="none">
<path d="M0 2560 l0 -2560 2560 0 2560 0 0 2560 0 2560 -2560 0 -2560 0 0
-2560z m2695 608 c103 -25 205 -113 252 -214 38 -83 52 -188 53 -381 0 -270
-22 -378 -97 -477 -47 -61 -118 -111 -192 -134 -82 -25 -247 -23 -323 5 -116
43 -194 124 -240 248 -20 55 -22 82 -26 315 -5 323 10 398 100 513 95 120 288
171 473 125z m-1135 -378 l5 -375 83 -3 82 -3 0 -109 0 -108 -85 -7 -85 -7 0
-109 0 -109 -114 0 -114 0 -8 108 -9 107 -205 6 c-113 3 -231 7 -262 8 l-58 1
0 161 0 162 168 328 167 329 215 -2 215 -3 5 -375z m2592 3 l3 -378 85 -5 85
-5 3 -106 3 -107 -88 -8 -88 -9 -3 -107 -3 -108 -114 0 -115 0 0 104 c0 85 -3
105 -16 110 -9 3 -73 6 -142 6 -70 0 -184 3 -254 7 l-128 6 0 154 0 153 111
223 c61 122 138 273 171 335 l60 112 214 0 214 0 2 -377z"/>
<path d="M2487 2977 c-60 -19 -103 -60 -126 -122 -19 -51 -21 -77 -21 -293 0
-130 5 -253 10 -273 27 -97 100 -149 207 -149 78 0 119 16 160 63 54 61 58 88
58 357 0 280 -6 312 -75 374 -59 53 -132 68 -213 43z m163 -312 c63 -61 61
-145 -5 -204 -46 -40 -93 -48 -142 -25 -103 51 -111 181 -17 246 43 29 125 21
164 -17z"/>
<path d="M1229 2907 c-38 -61 -219 -430 -219 -447 0 -9 8 -24 18 -33 15 -14
41 -17 143 -17 84 0 129 4 137 12 9 9 12 79 12 255 0 134 -1 243 -3 243 -1 0
-17 4 -35 9 -31 9 -34 8 -53 -22z"/>
<path d="M3796 2857 c-25 -45 -79 -153 -121 -239 -76 -157 -76 -158 -58 -182
18 -25 21 -25 148 -26 89 0 135 4 143 12 9 9 12 78 12 249 0 256 -1 259 -55
265 -22 2 -31 -8 -69 -79z"/>
</g>
</svg>
